<?xml version="1.0" encoding="UTF-8"?>
<!DOCTYPE svg PUBLIC "-//W3C//DTD SVG 1.1//EN" "http://www.w3.org/Graphics/SVG/1.1/DTD/svg11.dtd">
<svg version="1.1" xmlns="http://www.w3.org/2000/svg" xmlns:xlink="http://www.w3.org/1999/xlink" x="0" y="0" width="1600" height="1200" viewBox="0, 0, 1600, 1200">
  <defs>
    <linearGradient id="Gradient_1" gradientUnits="userSpaceOnUse" x1="789.32" y1="857.587" x2="793.32" y2="1243.587">
      <stop offset="0" stop-color="#E6302D"/>
      <stop offset="1" stop-color="#B8363A"/>
    </linearGradient>
    <linearGradient id="Gradient_2" gradientUnits="userSpaceOnUse" x1="782" y1="278.361" x2="782" y2="332.127">
      <stop offset="0" stop-color="#CCCCCC"/>
      <stop offset="1" stop-color="#FEFEFE"/>
    </linearGradient>
    <linearGradient id="Gradient_3" gradientUnits="userSpaceOnUse" x1="782" y1="403.361" x2="782" y2="457.127">
      <stop offset="0" stop-color="#CCCCCC"/>
      <stop offset="1" stop-color="#FEFEFE"/>
    </linearGradient>
    <linearGradient id="Gradient_4" gradientUnits="userSpaceOnUse" x1="782" y1="45" x2="782" y2="171.143">
      <stop offset="0" stop-color="#CCCCCC"/>
      <stop offset="1" stop-color="#FEFEFE"/>
    </linearGradient>
    <linearGradient id="Gradient_5" gradientUnits="userSpaceOnUse" x1="535.321" y1="336.446" x2="579.796" y2="336.446">
      <stop offset="0" stop-color="#E6302D"/>
      <stop offset="0.552" stop-color="#EA5F2B"/>
      <stop offset="1" stop-color="#B8363A"/>
    </linearGradient>
    <linearGradient id="Gradient_6" gradientUnits="userSpaceOnUse" x1="534.992" y1="459.224" x2="579.467" y2="459.224">
      <stop offset="0" stop-color="#2D2E2D"/>
      <stop offset="0.552" stop-color="#545454"/>
      <stop offset="1" stop-color="#2D2E2D"/>
    </linearGradient>
    <clipPath id="Clip_1">
      <path d="M533.736,241.001 L579.876,241.001 L579.876,245.233 L533.736,245.233 z"/>
    </clipPath>
    <clipPath id="Clip_2">
      <path d="M533.678,203.51 L545.989,203.51 L545.989,247.902 L533.678,247.902 z"/>
    </clipPath>
    <clipPath id="Clip_3">
      <path d="M532.932,114.15 L554.195,114.15 L554.195,133.75 L532.932,133.75 z"/>
    </clipPath>
    <clipPath id="Clip_4">
      <path d="M542.79,156.88 L567.624,156.88 L567.624,188 L542.79,188 z"/>
    </clipPath>
    <clipPath id="Clip_5">
      <path d="M556.219,159.68 L572.124,159.68 L572.124,179.61 L556.219,179.61 z"/>
    </clipPath>
    <linearGradient id="Gradient_7" gradientUnits="userSpaceOnUse" x1="687.8" y1="336.446" x2="732.275" y2="336.446">
      <stop offset="0" stop-color="#75C8D5"/>
      <stop offset="0.552" stop-color="#75C8D5"/>
      <stop offset="1" stop-color="#3DA2D2"/>
    </linearGradient>
    <linearGradient id="Gradient_8" gradientUnits="userSpaceOnUse" x1="687.77" y1="458.906" x2="732.245" y2="458.906">
      <stop offset="0" stop-color="#FAC711"/>
      <stop offset="0.552" stop-color="#FCCD0A"/>
      <stop offset="1" stop-color="#F3A730"/>
    </linearGradient>
    <clipPath id="Clip_6">
      <path d="M686.312,241.001 L732.453,241.001 L732.453,245.233 L686.312,245.233 z"/>
    </clipPath>
    <clipPath id="Clip_7">
      <path d="M686.254,203.51 L698.565,203.51 L698.565,247.902 L686.254,247.902 z"/>
    </clipPath>
    <clipPath id="Clip_8">
      <path d="M685.508,114.15 L706.772,114.15 L706.772,133.75 L685.508,133.75 z"/>
    </clipPath>
    <linearGradient id="Gradient_9" gradientUnits="userSpaceOnUse" x1="764.821" y1="336.592" x2="809.296" y2="336.592">
      <stop offset="0" stop-color="#FAC711"/>
      <stop offset="0.552" stop-color="#FCCD0A"/>
      <stop offset="1" stop-color="#F3A730"/>
    </linearGradient>
    <linearGradient id="Gradient_10" gradientUnits="userSpaceOnUse" x1="765.006" y1="458.827" x2="809.48" y2="458.827">
      <stop offset="0" stop-color="#75C8D5"/>
      <stop offset="0.552" stop-color="#75C8D5"/>
      <stop offset="1" stop-color="#3DA2D2"/>
    </linearGradient>
    <clipPath id="Clip_9">
      <path d="M763.286,241.001 L809.427,241.001 L809.427,245.233 L763.286,245.233 z"/>
    </clipPath>
    <clipPath id="Clip_10">
      <path d="M763.228,203.51 L775.539,203.51 L775.539,247.902 L763.228,247.902 z"/>
    </clipPath>
    <clipPath id="Clip_11">
      <path d="M762.481,114.15 L783.746,114.15 L783.746,133.75 L762.481,133.75 z"/>
    </clipPath>
    <linearGradient id="Gradient_11" gradientUnits="userSpaceOnUse" x1="840.654" y1="336.579" x2="885.129" y2="336.579">
      <stop offset="0" stop-color="#E6302D"/>
      <stop offset="0.552" stop-color="#EA5F2B"/>
      <stop offset="1" stop-color="#B8363A"/>
    </linearGradient>
    <linearGradient id="Gradient_12" gradientUnits="userSpaceOnUse" x1="840.576" y1="459.224" x2="885.052" y2="459.224">
      <stop offset="0" stop-color="#298F4C"/>
      <stop offset="0.552" stop-color="#47AD52"/>
      <stop offset="1" stop-color="#246A41"/>
    </linearGradient>
    <clipPath id="Clip_12">
      <path d="M842.457,235.879 L881.614,235.879 L881.614,239.47 L842.457,239.47 z"/>
    </clipPath>
    <clipPath id="Clip_13">
      <path d="M842.406,230.027 L852.855,230.027 L852.855,243.31 L842.406,243.31 z"/>
    </clipPath>
    <clipPath id="Clip_14">
      <path d="M841.773,154.19 L859.82,154.19 L859.82,170.82 L841.773,170.82 z"/>
    </clipPath>
    <clipPath id="Clip_15">
      <path d="M850.14,190.45 L871.217,190.45 L871.217,216.866 L850.14,216.866 z"/>
    </clipPath>
    <clipPath id="Clip_16">
      <path d="M861.537,192.83 L875.035,192.83 L875.035,209.743 L861.537,209.743 z"/>
    </clipPath>
    <linearGradient id="Gradient_13" gradientUnits="userSpaceOnUse" x1="917.327" y1="336.592" x2="961.802" y2="336.592">
      <stop offset="0" stop-color="#FAC711"/>
      <stop offset="0.552" stop-color="#FCCD0A"/>
      <stop offset="1" stop-color="#F3A730"/>
    </linearGradient>
    <linearGradient id="Gradient_14" gradientUnits="userSpaceOnUse" x1="917.791" y1="458.972" x2="962.266" y2="458.972">
      <stop offset="0" stop-color="#E6302D"/>
      <stop offset="0.552" stop-color="#EA5F2B"/>
      <stop offset="1" stop-color="#B8363A"/>
    </linearGradient>
    <clipPath id="Clip_17">
      <path d="M919.937,235.879 L959.095,235.879 L959.095,239.47 L919.937,239.47 z"/>
    </clipPath>
    <clipPath id="Clip_18">
      <path d="M919.887,230.027 L930.336,230.027 L930.336,243.31 L919.887,243.31 z"/>
    </clipPath>
    <clipPath id="Clip_19">
      <path d="M919.254,154.19 L937.3,154.19 L937.3,170.82 L919.254,170.82 z"/>
    </clipPath>
    <linearGradient id="Gradient_15" gradientUnits="userSpaceOnUse" x1="993.601" y1="336.261" x2="1038.075" y2="336.261">
      <stop offset="0" stop-color="#F1E540"/>
      <stop offset="0.552" stop-color="#EFEA45"/>
      <stop offset="1" stop-color="#EDCF40"/>
    </linearGradient>
    <linearGradient id="Gradient_16" gradientUnits="userSpaceOnUse" x1="993.986" y1="458.906" x2="1038.461" y2="458.906">
      <stop offset="0" stop-color="#FAC711"/>
      <stop offset="0.552" stop-color="#FCCD0A"/>
      <stop offset="1" stop-color="#F3A730"/>
    </linearGradient>
    <clipPath id="Clip_20">
      <path d="M995.896,235.879 L1035.05,235.879 L1035.05,239.47 L995.896,239.47 z"/>
    </clipPath>
    <clipPath id="Clip_21">
      <path d="M995.846,230.027 L1006.29,230.027 L1006.29,243.31 L995.846,243.31 z"/>
    </clipPath>
    <clipPath id="Clip_22">
      <path d="M995.213,154.19 L1013.26,154.19 L1013.26,170.82 L995.213,170.82 z"/>
    </clipPath>
    <linearGradient id="Gradient_17" gradientUnits="userSpaceOnUse" x1="611.934" y1="336.261" x2="656.408" y2="336.261">
      <stop offset="0" stop-color="#E6302D"/>
      <stop offset="0.552" stop-color="#EA5F2B"/>
      <stop offset="1" stop-color="#B8363A"/>
    </linearGradient>
    <linearGradient id="Gradient_18" gradientUnits="userSpaceOnUse" x1="611.154" y1="458.906" x2="655.628" y2="458.906">
      <stop offset="0" stop-color="#2D2E2D"/>
      <stop offset="0.552" stop-color="#545454"/>
      <stop offset="1" stop-color="#2D2E2D"/>
    </linearGradient>
    <clipPath id="Clip_23">
      <path d="M610.005,241.001 L656.146,241.001 L656.146,245.233 L610.005,245.233 z"/>
    </clipPath>
    <clipPath id="Clip_24">
      <path d="M609.946,203.51 L622.258,203.51 L622.258,247.902 L609.946,247.902 z"/>
    </clipPath>
    <clipPath id="Clip_25">
      <path d="M609.2,114.15 L630.464,114.15 L630.464,133.75 L609.2,133.75 z"/>
    </clipPath>
    <linearGradient id="Gradient_19" gradientUnits="userSpaceOnUse" x1="651" y1="579" x2="651" y2="601.286">
      <stop offset="0" stop-color="#E5E5E5"/>
      <stop offset="1" stop-color="#FEFEFE"/>
    </linearGradient>
    <linearGradient id="Gradient_20" gradientUnits="userSpaceOnUse" x1="996" y1="575.186" x2="996" y2="771.622">
      <stop offset="0" stop-color="#6A6B6B"/>
      <stop offset="1" stop-color="#222222"/>
    </linearGradient>
    <linearGradient id="Gradient_21" gradientUnits="userSpaceOnUse" x1="923.21" y1="-645.059" x2="997.004" y2="-709.628" gradientTransform="matrix(1, 0, 0, -1, 0, 0)">
      <stop offset="0" stop-color="#F1F1F1"/>
      <stop offset="0.521" stop-color="#FEFEFE"/>
      <stop offset="1" stop-color="#F1F1F1"/>
    </linearGradient>
    <linearGradient id="Gradient_22" gradientUnits="userSpaceOnUse" x1="1014.285" y1="-756.738" x2="1047.645" y2="-784.539" gradientTransform="matrix(1, 0, 0, -1, 0, 0)">
      <stop offset="0" stop-color="#B4B4B4"/>
      <stop offset="0.012" stop-color="#B4B4B4"/>
      <stop offset="0.521" stop-color="#FEFEFE"/>
      <stop offset="1" stop-color="#B4B4B4"/>
    </linearGradient>
    <clipPath id="Clip_26">
      <path d="M1077.869,813 C1080.15,813 1082,811.424 1082,809.479 L1082,753.521 C1082,751.576 1080.15,750 1077.869,750 L1010.131,750 C1007.85,750 1006,751.576 1006,753.521 L1006,809.479 C1006,811.424 1007.85,813 1010.131,813 L1077.869,813 z"/>
    </clipPath>
    <linearGradient id="Gradient_23" gradientUnits="userSpaceOnUse" x1="792.5" y1="866" x2="792.5" y2="988.409">
      <stop offset="0" stop-color="#2D2E2D"/>
      <stop offset="0.012" stop-color="#2D2E2D"/>
      <stop offset="0.897" stop-color="#6A6B6B"/>
      <stop offset="1" stop-color="#6A6B6B"/>
    </linearGradient>
    <linearGradient id="Gradient_24" gradientUnits="userSpaceOnUse" x1="522" y1="-915.5" x2="1063" y2="-915.5" gradientTransform="matrix(1, 0, 0, -1, 0, 0)">
      <stop offset="0" stop-color="#B4B4B4"/>
      <stop offset="0.012" stop-color="#B4B4B4"/>
      <stop offset="0.521" stop-color="#FEFEFE"/>
      <stop offset="1" stop-color="#B4B4B4"/>
    </linearGradient>
    <clipPath id="Clip_27">
      <path d="M1054.259,978 C1059.086,978 1063,973.849 1063,968.729 L1063,862.271 C1063,857.151 1059.086,853 1054.259,853 L530.741,853 C525.914,853 522,857.151 522,862.271 L522,968.729 C522,973.849 525.914,978 530.741,978 L1054.259,978 z"/>
    </clipPath>
    <linearGradient id="Gradient_25" gradientUnits="userSpaceOnUse" x1="579.876" y1="-841.939" x2="546.426" y2="-898.136" gradientTransform="matrix(1, 0, 0, -1, 0, 0)">
      <stop offset="0" stop-color="#FEFEFE"/>
      <stop offset="1" stop-color="#FEFEFE" stop-opacity="0"/>
    </linearGradient>
    <clipPath id="Clip_28">
      <path d="M533,899 C549,867 599,861 599,861 L561,861 C551,861 535,861 535,867 C535,873 533,899 533,899 z"/>
    </clipPath>
    <linearGradient id="Gradient_26" gradientUnits="userSpaceOnUse" x1="795" y1="-897" x2="795" y2="-995.082" gradientTransform="matrix(1, 0, 0, -1, 0, 0)">
      <stop offset="0" stop-color="#FEFEFE"/>
      <stop offset="1" stop-color="#FEFEFE" stop-opacity="0"/>
    </linearGradient>
    <clipPath id="Clip_29">
      <path d="M1040,965 C1042.762,965 1045,962.762 1045,960 L1045,944 C1045,941.238 1042.762,939 1040,939 L550,939 C547.239,939 545,941.238 545,944 L545,960 C545,962.762 547.239,965 550,965 L1040,965 z"/>
    </clipPath>
  </defs>
  <g id="レイヤー_1">
    <path d="M451.741,42 C446.913,42 443,46.451 443,51.941 L443,51.941 L443,1119 L1130,1119 L1130,51.941 C1130,46.451 1126.087,42 1121.26,42 L1121.26,42 z" fill="url(#Gradient_1)"/>
    <path d="M1088,536.198 C1088,541.059 1084.087,545 1079.26,545 L485.74,545 C480.913,545 477,541.059 477,536.198 L477,83.802 C477,78.941 480.913,75 485.74,75 L1079.26,75 C1084.087,75 1088,78.941 1088,83.802 z" fill="#FEFEFE"/>
    <path d="M508,344 L1056,344 L1056,292 L508,292 z" fill="url(#Gradient_2)"/>
    <path d="M508,469 L1056,469 L1056,417 L508,417 z" fill="url(#Gradient_3)"/>
    <path d="M508,199 L1056,199 L1056,77 L508,77 z" fill="url(#Gradient_4)"/>
    <g>
      <path d="M546,1150 C546,1152.762 543.761,1155 541,1155 L491,1155 C488.239,1155 486,1152.762 486,1150 L486,1138 C486,1135.238 488.239,1133 491,1133 L541,1133 C543.761,1133 546,1135.238 546,1138 z" fill="#222222"/>
      <path d="M1095,1151 C1095,1153.762 1092.762,1156 1090,1156 L1040,1156 C1037.238,1156 1035,1153.762 1035,1151 L1035,1139 C1035,1136.238 1037.238,1134 1040,1134 L1090,1134 C1092.762,1134 1095,1136.238 1095,1139 z" fill="#222222"/>
      <path d="M451.74,1142 L1121.26,1142 C1126.087,1142 1130,1137.549 1130,1132.059 L1130,1119 L443,1119 L443,1132.059 C443,1137.549 446.913,1142 451.74,1142" fill="#CF3432"/>
      <path d="M1064,279.729 C1064,284.849 1059.849,289 1054.729,289 L511.271,289 C506.151,289 502,284.849 502,279.729 L502,265.271 C502,260.151 506.151,256 511.271,256 L1054.729,256 C1059.849,256 1064,260.151 1064,265.271 z" fill="#F1F1F1"/>
      <path d="M1068,405.728 C1068,410.849 1063.849,414.999 1058.729,414.999 L515.271,414.999 C510.151,414.999 506,410.849 506,405.728 L506,391.271 C506,386.15 510.151,381.999 515.271,381.999 L1058.729,381.999 C1063.849,381.999 1068,386.15 1068,391.271 z" fill="#F1F1F1"/>
      <path d="M1070,529.729 C1070,534.849 1065.85,539 1060.729,539 L517.271,539 C512.15,539 508,534.849 508,529.729 L508,515.271 C508,510.151 512.15,506 517.271,506 L1060.729,506 C1065.85,506 1070,510.151 1070,515.271 z" fill="#F1F1F1"/>
      <path d="M585,280.365 C585,282.925 582.924,285 580.364,285 L534.636,285 C532.076,285 530,282.925 530,280.365 L530,264.636 C530,262.075 532.076,260 534.636,260 L580.364,260 C582.924,260 585,262.075 585,264.636 z" fill="#3DA2D2"/>
      <path d="M574,276.5 C574,279.538 571.538,282 568.5,282 L547.5,282 C544.462,282 542,279.538 542,276.5 C542,273.462 544.462,271 547.5,271 L568.5,271 C571.538,271 574,273.462 574,276.5" fill="#6A6B6B"/>
      <path d="M574,273.5 C574,276.538 571.538,279 568.5,279 L547.5,279 C544.462,279 542,276.538 542,273.5 C542,270.462 544.462,268 547.5,268 L568.5,268 C571.538,268 574,270.462 574,273.5" fill="#CCCCCC"/>
      <path d="M585,406.364 C585,408.924 582.924,411 580.364,411 L534.636,411 C532.076,411 530,408.924 530,406.364 L530,390.635 C530,388.075 532.076,386 534.636,386 L580.364,386 C582.924,386 585,388.075 585,390.635 z" fill="#3DA2D2"/>
      <path d="M574,402.5 C574,405.538 571.538,408 568.5,408 L547.5,408 C544.462,408 542,405.538 542,402.5 C542,399.462 544.462,397 547.5,397 L568.5,397 C571.538,397 574,399.462 574,402.5" fill="#6A6B6B"/>
      <path d="M574,399.5 C574,402.538 571.538,405 568.5,405 L547.5,405 C544.462,405 542,402.538 542,399.5 C542,396.462 544.462,394 547.5,394 L568.5,394 C571.538,394 574,396.462 574,399.5" fill="#CCCCCC"/>
    </g>
    <path d="M535.321,370.997 L579.759,371.021 L579.796,301.895 L535.358,301.872 z" fill="url(#Gradient_5)"/>
    <g>
      <path d="M581,303.012 C581,303.557 580.558,304 580.012,304 L534.988,304 C534.442,304 534,303.557 534,303.012 L534,301.988 C534,301.442 534.442,301 534.988,301 L580.012,301 C580.558,301 581,301.442 581,301.988 z" fill="#CCCCCC"/>
      <path d="M581,372.013 C581,372.558 580.558,373 580.012,373 L534.988,373 C534.442,373 534,372.558 534,372.013 L534,370.988 C534,370.442 534.442,370 534.988,370 L580.012,370 C580.558,370 581,370.442 581,370.988 z" fill="#CCCCCC"/>
      <path d="M585,530.364 C585,532.924 582.924,535 580.364,535 L534.636,535 C532.076,535 530,532.924 530,530.364 L530,514.635 C530,512.075 532.076,510 534.636,510 L580.364,510 C582.924,510 585,512.075 585,514.635 z" fill="#3DA2D2"/>
      <path d="M574,526.5 C574,529.538 571.538,532 568.5,532 L547.5,532 C544.462,532 542,529.538 542,526.5 C542,523.462 544.462,521 547.5,521 L568.5,521 C571.538,521 574,523.462 574,526.5" fill="#6A6B6B"/>
      <path d="M574,524.5 C574,527.538 571.538,530 568.5,530 L547.5,530 C544.462,530 542,527.538 542,524.5 C542,521.462 544.462,519 547.5,519 L568.5,519 C571.538,519 574,521.462 574,524.5" fill="#CCCCCC"/>
    </g>
    <path d="M534.991,493.775 L579.43,493.799 L579.467,424.673 L535.028,424.65 z" fill="url(#Gradient_6)"/>
    <g>
      <path d="M581,425.012 C581,425.557 580.558,426 580.012,426 L534.988,426 C534.442,426 534,425.557 534,425.012 L534,423.988 C534,423.442 534.442,423 534.988,423 L580.012,423 C580.558,423 581,423.442 581,423.988 z" fill="#CCCCCC"/>
      <path d="M581,495.013 C581,495.558 580.558,496 580.012,496 L534.988,496 C534.442,496 534,495.558 534,495.013 L534,493.988 C534,493.442 534.442,493 534.988,493 L580.012,493 C580.558,493 581,493.442 581,493.988 z" fill="#CCCCCC"/>
      <path d="M569,107.835 C570,107.599 571.397,106.755 571.397,106.45 C571.397,106.144 570,105.861 569,105.625 L569,97.156 C569,96.081 568.344,96 567.269,96 L547.408,96 C546.333,96 545,96.081 545,97.156 L545,105.646 C543,105.877 542.73,106.153 542.73,106.45 C542.73,106.746 543,107.583 545,107.814 L545,111 L569,111 z" fill="#F1F1F1"/>
      <path d="M529.812,139.749 C529.812,142.374 530.016,144.922 530.557,147.357 C530.266,147.715 530,148.166 530,148.658 L530,152.505 L530,195.913 L530,246.221 C530,247.392 531.174,248.342 532.346,248.342 C532.346,248.342 543.5,250.887 556.226,250.887 C568.952,250.887 581.999,248.342 581.999,248.342 C583.169,248.342 584,247.392 584,246.221 L584,195.92 L584,152.514 L584,148.658 C584,148.205 583.995,147.786 583.765,147.441 C584.32,144.982 584.596,142.405 584.596,139.749 C584.596,127.436 578,116.802 569,111.811 L569,111 L545,111 L545,111.881 C536,116.901 529.812,127.493 529.812,139.749" fill="#E4E792"/>
      <path d="M569,102.923 C569,104.07 568.07,105 566.923,105 L546.077,105 C544.93,105 544,104.07 544,102.923 L544,87.076 C544,85.929 544.93,85 546.077,85 L566.923,85 C568.07,85 569,85.929 569,87.076 z" fill="#8ABE4B"/>
      <path d="M549,104 L547,104 L547,86 L549,86 z" fill="#47AD52"/>
      <path d="M551,104 L550,104 L550,86 L551,86 z" fill="#47AD52"/>
      <path d="M553,104 L552,104 L552,86 L553,86 z" fill="#47AD52"/>
      <path d="M556,104 L555,104 L555,86 L556,86 z" fill="#47AD52"/>
      <path d="M560,104 L559,104 L559,86 L560,86 z" fill="#47AD52"/>
      <path d="M562,104 L561,104 L561,86 L562,86 z" fill="#47AD52"/>
      <path d="M565,104 L564,104 L564,86 L565,86 z" fill="#47AD52"/>
      <path d="M568,104 L567,104 L567,86 L568,86 z" fill="#47AD52"/>
      <g clip-path="url(#Clip_1)" opacity="0.31">
        <path d="M579.188,245.233 C579.125,245.233 579.06,245.224 578.996,245.205 C568.501,242.152 556.99,242.113 549.181,242.618 C540.699,243.167 534.629,244.459 534.568,244.472 C534.198,244.551 533.831,244.316 533.751,243.943 C533.672,243.573 533.909,243.207 534.279,243.127 C534.34,243.113 540.49,241.804 549.068,241.248 C556.995,240.733 568.686,240.774 579.38,243.885 C579.745,243.991 579.956,244.373 579.849,244.737 C579.761,245.037 579.487,245.233 579.188,245.233" fill="#B4B4B4"/>
      </g>
      <g clip-path="url(#Clip_2)" opacity="0.47">
        <path d="M534.051,203.51 C534.051,203.51 533.678,238.203 533.678,240.815 C533.678,243.426 533.678,246.783 545.989,247.902 C545.989,247.902 535.916,244.172 535.543,234.472 C535.17,224.774 534.051,203.51 534.051,203.51" fill="#FEFEFE"/>
      </g>
      <g clip-path="url(#Clip_3)" opacity="0.47">
        <path d="M545.989,114.728 C545.989,114.728 536.289,119.578 532.932,133.753 C532.932,133.753 545.989,115.847 550.092,115.474 L554.196,115.102 C554.196,115.102 548.973,113.236 545.989,114.728" fill="#FEFEFE"/>
      </g>
      <path d="M584,193.496 L584,150.09 C565,151.634 549,151.632 530,150.08 L530,193.488 C549,194.85 565,194.852 584,193.496" fill="#8ABE4B"/>
      <g clip-path="url(#Clip_4)" opacity="0.43">
        <path d="M567.624,187.471 C567.624,187.471 562.029,183.741 561.283,181.502 C560.537,179.264 561.656,171.057 554.195,166.207 C546.734,161.358 543.004,156.882 543.004,156.882 C543.004,156.882 541.139,175.533 548.413,176.653 C555.687,177.772 559.045,182.248 559.045,182.248 C559.045,182.248 566.132,190.082 567.624,187.471" fill="#D0D73C"/>
      </g>
      <g clip-path="url(#Clip_5)" opacity="0.43">
        <path d="M556.219,179.269 C556.219,179.269 559.802,176.88 560.28,175.446 C560.758,174.013 560.041,168.757 564.819,165.651 C569.597,162.546 571.986,159.679 571.986,159.679 C571.986,159.679 573.181,171.624 568.522,172.341 C563.864,173.058 561.714,175.924 561.714,175.924 C561.714,175.924 557.174,180.941 556.219,179.269" fill="#D0D73C"/>
      </g>
      <path d="M737,280.365 C737,282.925 734.924,285 732.364,285 L686.636,285 C684.076,285 682,282.925 682,280.365 L682,264.636 C682,262.075 684.076,260 686.636,260 L732.364,260 C734.924,260 737,262.075 737,264.636 z" fill="#3DA2D2"/>
      <path d="M726,276.5 C726,279.538 723.538,282 720.5,282 L699.5,282 C696.462,282 694,279.538 694,276.5 C694,273.462 696.462,271 699.5,271 L720.5,271 C723.538,271 726,273.462 726,276.5" fill="#6A6B6B"/>
      <path d="M726,273.5 C726,276.538 723.538,279 720.5,279 L699.5,279 C696.462,279 694,276.538 694,273.5 C694,270.462 696.462,268 699.5,268 L720.5,268 C723.538,268 726,270.462 726,273.5" fill="#CCCCCC"/>
      <path d="M737,406.364 C737,408.924 734.924,411 732.364,411 L686.636,411 C684.076,411 682,408.924 682,406.364 L682,390.635 C682,388.075 684.076,386 686.636,386 L732.364,386 C734.924,386 737,388.075 737,390.635 z" fill="#3DA2D2"/>
      <path d="M726,402.5 C726,405.538 723.538,408 720.5,408 L699.5,408 C696.462,408 694,405.538 694,402.5 C694,399.462 696.462,397 699.5,397 L720.5,397 C723.538,397 726,399.462 726,402.5" fill="#6A6B6B"/>
      <path d="M726,399.5 C726,402.538 723.538,405 720.5,405 L699.5,405 C696.462,405 694,402.538 694,399.5 C694,396.462 696.462,394 699.5,394 L720.5,394 C723.538,394 726,396.462 726,399.5" fill="#CCCCCC"/>
      <path d="M737,530.364 C737,532.924 734.924,535 732.364,535 L686.636,535 C684.076,535 682,532.924 682,530.364 L682,514.635 C682,512.075 684.076,510 686.636,510 L732.364,510 C734.924,510 737,512.075 737,514.635 z" fill="#3DA2D2"/>
      <path d="M726,526.5 C726,529.538 723.538,532 720.5,532 L699.5,532 C696.462,532 694,529.538 694,526.5 C694,523.462 696.462,521 699.5,521 L720.5,521 C723.538,521 726,523.462 726,526.5" fill="#6A6B6B"/>
      <path d="M726,524.5 C726,527.538 723.538,530 720.5,530 L699.5,530 C696.462,530 694,527.538 694,524.5 C694,521.462 696.462,519 699.5,519 L720.5,519 C723.538,519 726,521.462 726,524.5" fill="#CCCCCC"/>
    </g>
    <path d="M687.8,370.997 L732.238,371.021 L732.275,301.895 L687.837,301.872 z" fill="url(#Gradient_7)"/>
    <g>
      <path d="M733,303.012 C733,303.557 732.558,304 732.012,304 L686.988,304 C686.442,304 686,303.557 686,303.012 L686,301.988 C686,301.442 686.442,301 686.988,301 L732.012,301 C732.558,301 733,301.442 733,301.988 z" fill="#CCCCCC"/>
      <path d="M733,372.013 C733,372.558 732.558,373 732.012,373 L686.988,373 C686.442,373 686,372.558 686,372.013 L686,370.988 C686,370.442 686.442,370 686.988,370 L732.012,370 C732.558,370 733,370.442 733,370.988 z" fill="#CCCCCC"/>
    </g>
    <path d="M687.77,493.457 L732.208,493.48 L732.245,424.355 L687.807,424.331 z" fill="url(#Gradient_8)"/>
    <g>
      <path d="M733,425.012 C733,425.557 732.558,426 732.012,426 L686.988,426 C686.442,426 686,425.557 686,425.012 L686,423.988 C686,423.442 686.442,423 686.988,423 L732.012,423 C732.558,423 733,423.442 733,423.988 z" fill="#CCCCCC"/>
      <path d="M733,496.013 C733,496.558 732.558,497 732.012,497 L686.988,497 C686.442,497 686,496.558 686,496.013 L686,494.988 C686,494.442 686.442,494 686.988,494 L732.012,494 C732.558,494 733,494.442 733,494.988 z" fill="#CCCCCC"/>
      <path d="M722,107.835 C723,107.599 724.397,106.755 724.397,106.45 C724.397,106.144 723,105.861 722,105.625 L722,97.156 C722,96.081 720.921,96 719.845,96 L699.985,96 C698.91,96 698,96.081 698,97.156 L698,105.646 C696,105.877 695.731,106.153 695.731,106.45 C695.731,106.746 696,107.583 698,107.814 L698,111 L722,111 z" fill="#F1F1F1"/>
      <path d="M682.6,139.749 C682.6,142.374 682.909,144.922 683.452,147.357 C683.159,147.715 683,148.166 683,148.658 L683,152.505 L683,195.913 L683,246.221 C683,247.392 683.963,248.342 685.135,248.342 C685.135,248.342 696.182,250.887 708.909,250.887 C721.634,250.887 734.839,248.342 734.839,248.342 C736.011,248.342 737,247.392 737,246.221 L737,195.92 L737,152.514 L737,148.658 C737,148.205 736.783,147.786 736.553,147.441 C737.109,144.982 737.489,142.405 737.489,139.749 C737.489,127.436 731,116.802 722,111.811 L722,111 L698,111 L698,111.881 C689,116.901 682.6,127.493 682.6,139.749" fill="#EC9235"/>
      <path d="M722,102.923 C722,104.07 721.07,105 719.923,105 L699.077,105 C697.93,105 697,104.07 697,102.923 L697,87.076 C697,85.929 697.93,85 699.077,85 L719.923,85 C721.07,85 722,85.929 722,87.076 z" fill="#F1F1F1"/>
      <path d="M702,104 L700,104 L700,86 L702,86 z" fill="#E5E5E5"/>
      <path d="M704,104 L703,104 L703,86 L704,86 z" fill="#E5E5E5"/>
      <path d="M706,104 L705,104 L705,86 L706,86 z" fill="#E5E5E5"/>
      <path d="M709,104 L708,104 L708,86 L709,86 z" fill="#E5E5E5"/>
      <path d="M713,104 L712,104 L712,86 L713,86 z" fill="#E5E5E5"/>
      <path d="M715,104 L714,104 L714,86 L715,86 z" fill="#E5E5E5"/>
      <path d="M718,104 L717,104 L717,86 L718,86 z" fill="#E5E5E5"/>
      <path d="M721,104 L720,104 L720,86 L721,86 z" fill="#E5E5E5"/>
      <g clip-path="url(#Clip_6)" opacity="0.31">
        <path d="M731.765,245.233 C731.702,245.233 731.638,245.224 731.573,245.205 C721.078,242.152 709.567,242.113 701.759,242.618 C693.276,243.167 687.206,244.459 687.145,244.472 C686.775,244.551 686.409,244.316 686.328,243.943 C686.249,243.573 686.484,243.207 686.856,243.127 C686.917,243.113 693.067,241.804 701.644,241.248 C709.571,240.733 721.264,240.774 731.957,243.885 C732.323,243.991 732.532,244.373 732.426,244.737 C732.338,245.037 732.064,245.233 731.765,245.233" fill="#B4B4B4"/>
      </g>
      <g clip-path="url(#Clip_7)" opacity="0.47">
        <path d="M686.627,203.51 C686.627,203.51 686.254,238.203 686.254,240.815 C686.254,243.426 686.254,246.783 698.565,247.902 C698.565,247.902 688.492,244.172 688.12,234.472 C687.746,224.774 686.627,203.51 686.627,203.51" fill="#FEFEFE"/>
      </g>
      <g clip-path="url(#Clip_8)" opacity="0.47">
        <path d="M698.565,114.728 C698.565,114.728 688.865,119.578 685.507,133.753 C685.507,133.753 698.565,115.847 702.668,115.474 L706.772,115.102 C706.772,115.102 701.548,113.236 698.565,114.728" fill="#FEFEFE"/>
      </g>
      <path d="M738,193.496 L738,150.09 C719,151.634 702,151.632 683,150.08 L683,193.488 C702,194.85 719,194.852 738,193.496" fill="#EFEA45"/>
      <path d="M814,280.365 C814,282.925 811.924,285 809.364,285 L763.636,285 C761.076,285 759,282.925 759,280.365 L759,264.636 C759,262.075 761.076,260 763.636,260 L809.364,260 C811.924,260 814,262.075 814,264.636 z" fill="#3DA2D2"/>
      <path d="M803,276.5 C803,279.538 800.538,282 797.5,282 L776.5,282 C773.462,282 771,279.538 771,276.5 C771,273.462 773.462,271 776.5,271 L797.5,271 C800.538,271 803,273.462 803,276.5" fill="#6A6B6B"/>
      <path d="M803,273.5 C803,276.538 800.538,279 797.5,279 L776.5,279 C773.462,279 771,276.538 771,273.5 C771,270.462 773.462,268 776.5,268 L797.5,268 C800.538,268 803,270.462 803,273.5" fill="#CCCCCC"/>
      <path d="M814,406.364 C814,408.924 811.924,411 809.364,411 L763.636,411 C761.076,411 759,408.924 759,406.364 L759,390.635 C759,388.075 761.076,386 763.636,386 L809.364,386 C811.924,386 814,388.075 814,390.635 z" fill="#3DA2D2"/>
      <path d="M803,402.5 C803,405.538 800.538,408 797.5,408 L776.5,408 C773.462,408 771,405.538 771,402.5 C771,399.462 773.462,397 776.5,397 L797.5,397 C800.538,397 803,399.462 803,402.5" fill="#6A6B6B"/>
      <path d="M803,399.5 C803,402.538 800.538,405 797.5,405 L776.5,405 C773.462,405 771,402.538 771,399.5 C771,396.462 773.462,394 776.5,394 L797.5,394 C800.538,394 803,396.462 803,399.5" fill="#CCCCCC"/>
      <path d="M814,530.364 C814,532.924 811.924,535 809.364,535 L763.636,535 C761.076,535 759,532.924 759,530.364 L759,514.635 C759,512.075 761.076,510 763.636,510 L809.364,510 C811.924,510 814,512.075 814,514.635 z" fill="#3DA2D2"/>
      <path d="M803,526.5 C803,529.538 800.538,532 797.5,532 L776.5,532 C773.462,532 771,529.538 771,526.5 C771,523.462 773.462,521 776.5,521 L797.5,521 C800.538,521 803,523.462 803,526.5" fill="#6A6B6B"/>
      <path d="M803,524.5 C803,527.538 800.538,530 797.5,530 L776.5,530 C773.462,530 771,527.538 771,524.5 C771,521.462 773.462,519 776.5,519 L797.5,519 C800.538,519 803,521.462 803,524.5" fill="#CCCCCC"/>
    </g>
    <path d="M764.821,371.142 L809.258,371.166 L809.296,302.04 L764.858,302.017 z" fill="url(#Gradient_9)"/>
    <g>
      <path d="M810,303.012 C810,303.557 809.558,304 809.012,304 L763.988,304 C763.442,304 763,303.557 763,303.012 L763,301.988 C763,301.442 763.442,301 763.988,301 L809.012,301 C809.558,301 810,301.442 810,301.988 z" fill="#CCCCCC"/>
      <path d="M810,373.013 C810,373.558 809.558,374 809.012,374 L763.988,374 C763.442,374 763,373.558 763,373.013 L763,371.988 C763,371.442 763.442,371 763.988,371 L809.012,371 C809.558,371 810,371.442 810,371.988 z" fill="#CCCCCC"/>
    </g>
    <path d="M765.005,493.378 L809.443,493.401 L809.481,424.276 L765.042,424.252 z" fill="url(#Gradient_10)"/>
    <g>
      <path d="M810,425.012 C810,425.557 809.558,426 809.012,426 L763.988,426 C763.442,426 763,425.557 763,425.012 L763,423.988 C763,423.442 763.442,423 763.988,423 L809.012,423 C809.558,423 810,423.442 810,423.988 z" fill="#CCCCCC"/>
      <path d="M810,495.013 C810,495.558 809.558,496 809.012,496 L763.988,496 C763.442,496 763,495.558 763,495.013 L763,493.988 C763,493.442 763.442,493 763.988,493 L809.012,493 C809.558,493 810,493.442 810,493.988 z" fill="#CCCCCC"/>
      <path d="M798,107.835 C799,107.599 800.397,106.755 800.397,106.45 C800.397,106.144 799,105.861 798,105.625 L798,97.156 C798,96.081 797.895,96 796.819,96 L776.959,96 C775.883,96 774,96.081 774,97.156 L774,105.646 C772,105.877 771.731,106.153 771.731,106.45 C771.731,106.746 772,107.583 774,107.814 L774,111 L798,111 z" fill="#F1F1F1"/>
      <path d="M759.086,139.749 C759.086,142.374 759.152,144.922 759.695,147.357 C759.402,147.715 759,148.166 759,148.658 L759,152.505 L759,195.913 L759,246.221 C759,247.392 760.45,248.342 761.622,248.342 C761.622,248.342 772.912,250.887 785.639,250.887 C798.364,250.887 811.205,248.342 811.205,248.342 C812.377,248.342 813,247.392 813,246.221 L813,195.92 L813,152.514 L813,148.658 C813,148.205 813.27,147.786 813.039,147.441 C813.596,144.982 813.732,142.405 813.732,139.749 C813.732,127.436 807,116.802 798,111.811 L798,111 L774,111 L774,111.881 C765,116.901 759.086,127.493 759.086,139.749" fill="#FCFAE1"/>
      <path d="M798,102.923 C798,104.07 797.07,105 795.923,105 L775.077,105 C773.93,105 773,104.07 773,102.923 L773,87.076 C773,85.929 773.93,85 775.077,85 L795.923,85 C797.07,85 798,85.929 798,87.076 z" fill="#F1F1F1"/>
      <path d="M778,104 L776,104 L776,86 L778,86 z" fill="#E5E5E5"/>
      <path d="M780,104 L779,104 L779,86 L780,86 z" fill="#E5E5E5"/>
      <path d="M782,104 L781,104 L781,86 L782,86 z" fill="#E5E5E5"/>
      <path d="M785,104 L784,104 L784,86 L785,86 z" fill="#E5E5E5"/>
      <path d="M789,104 L788,104 L788,86 L789,86 z" fill="#E5E5E5"/>
      <path d="M791,104 L790,104 L790,86 L791,86 z" fill="#E5E5E5"/>
      <path d="M794,104 L793,104 L793,86 L794,86 z" fill="#E5E5E5"/>
      <path d="M797,104 L796,104 L796,86 L797,86 z" fill="#E5E5E5"/>
      <g clip-path="url(#Clip_9)" opacity="0.31">
        <path d="M808.738,245.233 C808.675,245.233 808.611,245.224 808.547,245.205 C798.051,242.152 786.54,242.113 778.731,242.618 C770.249,243.167 764.179,244.459 764.118,244.472 C763.748,244.551 763.382,244.316 763.301,243.943 C763.222,243.573 763.457,243.207 763.829,243.127 C763.89,243.113 770.04,241.804 778.617,241.248 C786.544,240.733 798.237,240.774 808.929,243.885 C809.296,243.991 809.506,244.373 809.399,244.737 C809.311,245.037 809.037,245.233 808.738,245.233" fill="#B4B4B4"/>
      </g>
      <g clip-path="url(#Clip_10)" opacity="0.47">
        <path d="M763.601,203.51 C763.601,203.51 763.228,238.203 763.228,240.815 C763.228,243.426 763.228,246.783 775.539,247.902 C775.539,247.902 765.466,244.172 765.094,234.472 C764.72,224.774 763.601,203.51 763.601,203.51" fill="#FEFEFE"/>
      </g>
      <g clip-path="url(#Clip_11)" opacity="0.47">
        <path d="M775.539,114.728 C775.539,114.728 765.839,119.578 762.481,133.753 C762.481,133.753 775.539,115.847 779.642,115.474 L783.746,115.102 C783.746,115.102 778.522,113.236 775.539,114.728" fill="#FEFEFE"/>
      </g>
      <path d="M814,193.496 L814,150.09 C795,151.634 778,151.632 759,150.08 L759,193.488 C778,194.85 795,194.852 814,193.496" fill="#F1F1F1"/>
      <path d="M778.035,177.36 C778.035,173.776 775.129,170.87 771.545,170.87 C767.96,170.87 765.055,173.776 765.055,177.36 C765.055,180.944 767.96,183.85 771.545,183.85 C775.129,183.85 778.035,180.944 778.035,177.36" fill="#75C8D5"/>
      <path d="M795.65,176.897 C795.65,170.497 790.461,165.308 784.061,165.308 C777.661,165.308 772.472,170.497 772.472,176.897 C772.472,183.297 777.661,188.486 784.061,188.486 C790.461,188.486 795.65,183.297 795.65,176.897" fill="#75C8D5"/>
      <path d="M803.994,164.38 C803.994,161.308 801.504,158.817 798.431,158.817 C795.359,158.817 792.869,161.308 792.869,164.38 C792.869,167.452 795.359,169.943 798.431,169.943 C801.504,169.943 803.994,167.452 803.994,164.38" fill="#75C8D5"/>
      <path d="M890,280.365 C890,282.925 887.925,285 885.364,285 L839.636,285 C837.076,285 835,282.925 835,280.365 L835,264.636 C835,262.075 837.076,260 839.636,260 L885.364,260 C887.925,260 890,262.075 890,264.636 z" fill="#3DA2D2"/>
      <path d="M879,276.5 C879,279.538 876.537,282 873.5,282 L852.5,282 C849.463,282 847,279.538 847,276.5 C847,273.462 849.463,271 852.5,271 L873.5,271 C876.537,271 879,273.462 879,276.5" fill="#6A6B6B"/>
      <path d="M879,273.5 C879,276.538 876.537,279 873.5,279 L852.5,279 C849.463,279 847,276.538 847,273.5 C847,270.462 849.463,268 852.5,268 L873.5,268 C876.537,268 879,270.462 879,273.5" fill="#CCCCCC"/>
      <path d="M890,406.364 C890,408.924 887.925,411 885.364,411 L839.636,411 C837.076,411 835,408.924 835,406.364 L835,390.635 C835,388.075 837.076,386 839.636,386 L885.364,386 C887.925,386 890,388.075 890,390.635 z" fill="#3DA2D2"/>
      <path d="M879,402.5 C879,405.538 876.537,408 873.5,408 L852.5,408 C849.463,408 847,405.538 847,402.5 C847,399.462 849.463,397 852.5,397 L873.5,397 C876.537,397 879,399.462 879,402.5" fill="#6A6B6B"/>
      <path d="M879,399.5 C879,402.538 876.537,405 873.5,405 L852.5,405 C849.463,405 847,402.538 847,399.5 C847,396.462 849.463,394 852.5,394 L873.5,394 C876.537,394 879,396.462 879,399.5" fill="#CCCCCC"/>
      <path d="M890,530.364 C890,532.924 887.925,535 885.364,535 L839.636,535 C837.076,535 835,532.924 835,530.364 L835,514.635 C835,512.075 837.076,510 839.636,510 L885.364,510 C887.925,510 890,512.075 890,514.635 z" fill="#3DA2D2"/>
      <path d="M879,526.5 C879,529.538 876.537,532 873.5,532 L852.5,532 C849.463,532 847,529.538 847,526.5 C847,523.462 849.463,521 852.5,521 L873.5,521 C876.537,521 879,523.462 879,526.5" fill="#6A6B6B"/>
      <path d="M879,524.5 C879,527.538 876.537,530 873.5,530 L852.5,530 C849.463,530 847,527.538 847,524.5 C847,521.462 849.463,519 852.5,519 L873.5,519 C876.537,519 879,521.462 879,524.5" fill="#CCCCCC"/>
    </g>
    <path d="M840.654,371.13 L885.091,371.153 L885.129,302.028 L840.69,302.004 z" fill="url(#Gradient_11)"/>
    <g>
      <path d="M886,303.012 C886,303.557 885.558,304 885.012,304 L839.988,304 C839.442,304 839,303.557 839,303.012 L839,301.988 C839,301.442 839.442,301 839.988,301 L885.012,301 C885.558,301 886,301.442 886,301.988 z" fill="#CCCCCC"/>
      <path d="M886,372.013 C886,372.558 885.558,373 885.012,373 L839.988,373 C839.442,373 839,372.558 839,372.013 L839,370.988 C839,370.442 839.442,370 839.988,370 L885.012,370 C885.558,370 886,370.442 886,370.988 z" fill="#CCCCCC"/>
    </g>
    <path d="M840.577,493.775 L885.015,493.799 L885.052,424.673 L840.613,424.65 z" fill="url(#Gradient_12)"/>
    <g>
      <path d="M886,425.012 C886,425.557 885.558,426 885.012,426 L839.988,426 C839.442,426 839,425.557 839,425.012 L839,423.988 C839,423.442 839.442,423 839.988,423 L885.012,423 C885.558,423 886,423.442 886,423.988 z" fill="#CCCCCC"/>
      <path d="M886,495.013 C886,495.558 885.558,496 885.012,496 L839.988,496 C839.442,496 839,495.558 839,495.013 L839,493.988 C839,493.442 839.442,493 839.988,493 L885.012,493 C885.558,493 886,493.442 886,493.988 z" fill="#CCCCCC"/>
      <path d="M884,184.747 L884,183.474 C884,183.089 884.553,182.733 884.357,182.441 C884.83,180.354 885.149,178.167 885.149,175.913 C885.149,165.463 880,156.438 872,152.203 L872,151 L852,151 L852,152.262 C844,156.522 839.118,165.511 839.118,175.913 C839.118,178.141 839.151,180.303 839.612,182.37 C839.363,182.674 839,183.057 839,183.474 L839,184.681 C855,185.976 869,185.992 884,184.747" fill="#E4E792"/>
      <path d="M839,193.194 L839,195.541 L839,244.233 C839,245.366 840.14,246.285 841.134,246.285 C841.134,246.285 850.67,248.749 861.471,248.749 C872.271,248.749 882.824,246.285 882.824,246.285 C883.818,246.285 884,245.366 884,244.233 L884,195.549 L884,193.26 C869,194.507 855,194.49 839,193.194" fill="#E4E792"/>
      <path d="M872,148.829 C872,148.628 874.036,147.912 874.036,147.654 C874.036,147.394 872,147.153 872,146.953 L872,139.766 C872,138.853 871.827,138 870.915,138 L854.06,138 C853.147,138 852,138.853 852,139.766 L852,146.971 C850,147.167 850.074,147.402 850.074,147.654 C850.074,147.905 850,148.614 852,148.811 L852,151 L872,151 z" fill="#F1F1F1"/>
      <path d="M872,145.238 C872,146.211 871.211,147 870.238,147 L852.762,147 C851.789,147 851,146.211 851,145.238 L851,130.762 C851,129.789 851.789,129 852.762,129 L870.238,129 C871.211,129 872,129.789 872,130.762 z" fill="#8ABE4B"/>
      <path d="M855,146 L853,146 L853,130 L855,130 z" fill="#47AD52"/>
      <path d="M856,146 L856,146 L856,130 z" fill="#47AD52"/>
      <path d="M858,146 L857,146 L857,130 L858,130 z" fill="#47AD52"/>
      <path d="M861,146 L860,146 L860,130 L861,130 z" fill="#47AD52"/>
      <path d="M864,146 L863,146 L863,130 L864,130 z" fill="#47AD52"/>
      <path d="M866,146 L865,146 L865,130 L866,130 z" fill="#47AD52"/>
      <path d="M869,146 L868,146 L868,130 L869,130 z" fill="#47AD52"/>
      <path d="M871,146 L870,146 L870,130 L871,130 z" fill="#47AD52"/>
      <g clip-path="url(#Clip_12)" opacity="0.31">
        <path d="M881.03,239.47 C880.977,239.47 880.923,239.462 880.867,239.447 C871.961,236.855 862.191,236.823 855.564,237.251 C848.365,237.717 843.214,238.813 843.162,238.824 C842.847,238.891 842.537,238.691 842.469,238.376 C842.402,238.061 842.601,237.751 842.916,237.682 C842.968,237.671 848.187,236.56 855.467,236.088 C862.195,235.651 872.118,235.686 881.193,238.326 C881.504,238.416 881.681,238.74 881.591,239.049 C881.516,239.304 881.284,239.47 881.03,239.47" fill="#B4B4B4"/>
      </g>
      <g clip-path="url(#Clip_13)" opacity="0.47">
        <path d="M842.723,230.027 C842.723,230.027 842.407,240.407 842.407,241.189 C842.407,241.97 842.407,242.975 852.856,243.31 C852.856,243.31 844.306,242.194 843.991,239.291 C843.673,236.389 842.723,230.027 842.723,230.027" fill="#FEFEFE"/>
      </g>
      <g clip-path="url(#Clip_14)" opacity="0.47">
        <path d="M852.856,154.679 C852.856,154.679 844.624,158.795 841.773,170.825 C841.773,170.825 852.856,155.628 856.336,155.312 L859.82,154.996 C859.82,154.996 855.387,153.412 852.856,154.679" fill="#FEFEFE"/>
      </g>
      <path d="M884,184.747 C869,185.992 855,185.976 839,184.681 L839,186.739 L839,221.52 C855,222.656 869,222.672 884,221.578 L884,186.747 z" fill="#8ABE4B"/>
      <g clip-path="url(#Clip_15)" opacity="0.43">
        <path d="M871.217,216.414 C871.217,216.414 866.468,213.248 865.835,211.349 C865.201,209.449 866.152,202.484 859.821,198.368 C853.488,194.252 850.322,190.453 850.322,190.453 C850.322,190.453 848.738,206.283 854.912,207.232 C861.086,208.182 863.936,211.981 863.936,211.981 C863.936,211.981 869.95,218.63 871.217,216.414" fill="#D0D73C"/>
      </g>
      <g clip-path="url(#Clip_16)" opacity="0.43">
        <path d="M861.537,209.454 C861.537,209.454 864.578,207.426 864.983,206.209 C865.39,204.993 864.78,200.533 868.836,197.896 C872.891,195.261 874.918,192.829 874.918,192.829 C874.918,192.829 875.933,202.966 871.979,203.574 C868.024,204.183 866.201,206.615 866.201,206.615 C866.201,206.615 862.348,210.873 861.537,209.454" fill="#D0D73C"/>
      </g>
      <path d="M967,280.365 C967,282.925 964.925,285 962.364,285 L916.636,285 C914.075,285 912,282.925 912,280.365 L912,264.636 C912,262.075 914.075,260 916.636,260 L962.364,260 C964.925,260 967,262.075 967,264.636 z" fill="#3DA2D2"/>
      <path d="M956,276.5 C956,279.538 953.537,282 950.5,282 L929.5,282 C926.463,282 924,279.538 924,276.5 C924,273.462 926.463,271 929.5,271 L950.5,271 C953.537,271 956,273.462 956,276.5" fill="#6A6B6B"/>
      <path d="M956,273.5 C956,276.538 953.537,279 950.5,279 L929.5,279 C926.463,279 924,276.538 924,273.5 C924,270.462 926.463,268 929.5,268 L950.5,268 C953.537,268 956,270.462 956,273.5" fill="#CCCCCC"/>
      <path d="M967,406.364 C967,408.924 964.925,411 962.364,411 L916.636,411 C914.075,411 912,408.924 912,406.364 L912,390.635 C912,388.075 914.075,386 916.636,386 L962.364,386 C964.925,386 967,388.075 967,390.635 z" fill="#3DA2D2"/>
      <path d="M956,402.5 C956,405.538 953.537,408 950.5,408 L929.5,408 C926.463,408 924,405.538 924,402.5 C924,399.462 926.463,397 929.5,397 L950.5,397 C953.537,397 956,399.462 956,402.5" fill="#6A6B6B"/>
      <path d="M956,399.5 C956,402.538 953.537,405 950.5,405 L929.5,405 C926.463,405 924,402.538 924,399.5 C924,396.462 926.463,394 929.5,394 L950.5,394 C953.537,394 956,396.462 956,399.5" fill="#CCCCCC"/>
      <path d="M967,530.364 C967,532.924 964.925,535 962.364,535 L916.636,535 C914.075,535 912,532.924 912,530.364 L912,514.635 C912,512.075 914.075,510 916.636,510 L962.364,510 C964.925,510 967,512.075 967,514.635 z" fill="#3DA2D2"/>
      <path d="M956,526.5 C956,529.538 953.537,532 950.5,532 L929.5,532 C926.463,532 924,529.538 924,526.5 C924,523.462 926.463,521 929.5,521 L950.5,521 C953.537,521 956,523.462 956,526.5" fill="#6A6B6B"/>
      <path d="M956,524.5 C956,527.538 953.537,530 950.5,530 L929.5,530 C926.463,530 924,527.538 924,524.5 C924,521.462 926.463,519 929.5,519 L950.5,519 C953.537,519 956,521.462 956,524.5" fill="#CCCCCC"/>
    </g>
    <path d="M917.327,371.142 L961.764,371.166 L961.802,302.04 L917.364,302.017 z" fill="url(#Gradient_13)"/>
    <g>
      <path d="M963,303.012 C963,303.557 962.558,304 962.013,304 L916.987,304 C916.442,304 916,303.557 916,303.012 L916,301.988 C916,301.442 916.442,301 916.987,301 L962.013,301 C962.558,301 963,301.442 963,301.988 z" fill="#CCCCCC"/>
      <path d="M963,373.013 C963,373.558 962.558,374 962.013,374 L916.987,374 C916.442,374 916,373.558 916,373.013 L916,371.988 C916,371.442 916.442,371 916.987,371 L962.013,371 C962.558,371 963,371.442 963,371.988 z" fill="#CCCCCC"/>
    </g>
    <path d="M917.791,493.523 L962.229,493.547 L962.266,424.421 L917.827,424.397 z" fill="url(#Gradient_14)"/>
    <g>
      <path d="M963,425.012 C963,425.557 962.558,426 962.013,426 L916.987,426 C916.442,426 916,425.557 916,425.012 L916,423.988 C916,423.442 916.442,423 916.987,423 L962.013,423 C962.558,423 963,423.442 963,423.988 z" fill="#CCCCCC"/>
      <path d="M963,496.013 C963,496.558 962.558,497 962.013,497 L916.987,497 C916.442,497 916,496.558 916,496.013 L916,494.988 C916,494.442 916.442,494 916.987,494 L962.013,494 C962.558,494 963,494.442 963,494.988 z" fill="#CCCCCC"/>
      <path d="M962,184.747 L962,183.474 C962,183.089 962.293,182.733 962.098,182.441 C962.57,180.354 963.02,178.167 963.02,175.913 C963.02,165.463 958,156.438 950,152.203 L950,151 L930,151 L930,152.262 C921,156.522 916.857,165.511 916.857,175.913 C916.857,178.141 917.021,180.303 917.482,182.37 C917.233,182.674 917,183.057 917,183.474 L917,184.681 C933,185.976 947,185.992 962,184.747" fill="#E8F4F7"/>
      <path d="M917,193.194 L917,195.541 L917,244.233 C917,245.366 917.881,246.285 918.875,246.285 C918.875,246.285 928.28,248.749 939.081,248.749 C949.881,248.749 960.627,246.285 960.627,246.285 C961.621,246.285 962,245.366 962,244.233 L962,195.549 L962,193.26 C947,194.507 933,194.49 917,193.194" fill="#E8F4F7"/>
      <path d="M950,148.829 C950,148.628 952.035,147.912 952.035,147.654 C952.035,147.394 950,147.153 950,146.953 L950,139.766 C950,138.853 949.308,138 948.395,138 L931.54,138 C930.627,138 930,138.853 930,139.766 L930,146.971 C928,147.167 928.074,147.402 928.074,147.654 C928.074,147.905 928,148.614 930,148.811 L930,151 L950,151 z" fill="#F1F1F1"/>
      <path d="M950,145.238 C950,146.211 949.211,147 948.238,147 L930.762,147 C929.789,147 929,146.211 929,145.238 L929,130.762 C929,129.789 929.789,129 930.762,129 L948.238,129 C949.211,129 950,129.789 950,130.762 z" fill="#F1F1F1"/>
      <path d="M933,146 L931,146 L931,130 L933,130 z" fill="#CCCCCC"/>
      <path d="M934,146 L933,146 L933,130 L934,130 z" fill="#CCCCCC"/>
      <path d="M936,146 L935,146 L935,130 L936,130 z" fill="#CCCCCC"/>
      <path d="M939,146 L938,146 L938,130 L939,130 z" fill="#CCCCCC"/>
      <path d="M942,146 L941,146 L941,130 L942,130 z" fill="#CCCCCC"/>
      <path d="M944,146 L943,146 L943,130 L944,130 z" fill="#CCCCCC"/>
      <path d="M946,146 L946,146 L946,130 z" fill="#CCCCCC"/>
      <path d="M949,146 L948,146 L948,130 L949,130 z" fill="#CCCCCC"/>
      <g clip-path="url(#Clip_17)" opacity="0.31">
        <path d="M958.511,239.47 C958.457,239.47 958.404,239.462 958.348,239.447 C949.442,236.855 939.671,236.823 933.045,237.251 C925.845,237.717 920.695,238.813 920.643,238.824 C920.328,238.891 920.018,238.691 919.95,238.376 C919.882,238.061 920.081,237.751 920.397,237.682 C920.449,237.671 925.668,236.56 932.948,236.088 C939.676,235.651 949.598,235.686 958.674,238.326 C958.985,238.416 959.162,238.74 959.072,239.049 C958.997,239.304 958.765,239.47 958.511,239.47" fill="#B4B4B4"/>
      </g>
      <g clip-path="url(#Clip_18)" opacity="0.47">
        <path d="M920.203,230.027 C920.203,230.027 919.887,240.407 919.887,241.189 C919.887,241.97 919.887,242.975 930.336,243.31 C930.336,243.31 921.786,242.194 921.47,239.291 C921.153,236.389 920.203,230.027 920.203,230.027" fill="#FEFEFE"/>
      </g>
      <g clip-path="url(#Clip_19)" opacity="0.47">
        <path d="M930.336,154.679 C930.336,154.679 922.103,158.795 919.254,170.825 C919.254,170.825 930.336,155.628 933.817,155.312 L937.3,154.996 C937.3,154.996 932.867,153.412 930.336,154.679" fill="#FEFEFE"/>
      </g>
      <path d="M962,184.747 C947,185.992 933,185.976 917,184.681 L917,186.739 L917,221.52 C933,222.656 947,222.672 962,221.578 L962,186.747 z" fill="#75C8D5"/>
      <path d="M1043,280.365 C1043,282.925 1040.925,285 1038.364,285 L992.636,285 C990.075,285 988,282.925 988,280.365 L988,264.636 C988,262.075 990.075,260 992.636,260 L1038.364,260 C1040.925,260 1043,262.075 1043,264.636 z" fill="#3DA2D2"/>
      <path d="M1032,276.5 C1032,279.538 1029.537,282 1026.5,282 L1005.5,282 C1002.463,282 1000,279.538 1000,276.5 C1000,273.462 1002.463,271 1005.5,271 L1026.5,271 C1029.537,271 1032,273.462 1032,276.5" fill="#6A6B6B"/>
      <path d="M1032,273.5 C1032,276.538 1029.537,279 1026.5,279 L1005.5,279 C1002.463,279 1000,276.538 1000,273.5 C1000,270.462 1002.463,268 1005.5,268 L1026.5,268 C1029.537,268 1032,270.462 1032,273.5" fill="#CCCCCC"/>
      <path d="M1043,406.364 C1043,408.924 1040.925,411 1038.364,411 L992.636,411 C990.075,411 988,408.924 988,406.364 L988,390.635 C988,388.075 990.075,386 992.636,386 L1038.364,386 C1040.925,386 1043,388.075 1043,390.635 z" fill="#3DA2D2"/>
      <path d="M1032,402.5 C1032,405.538 1029.537,408 1026.5,408 L1005.5,408 C1002.463,408 1000,405.538 1000,402.5 C1000,399.462 1002.463,397 1005.5,397 L1026.5,397 C1029.537,397 1032,399.462 1032,402.5" fill="#6A6B6B"/>
      <path d="M1032,399.5 C1032,402.538 1029.537,405 1026.5,405 L1005.5,405 C1002.463,405 1000,402.538 1000,399.5 C1000,396.462 1002.463,394 1005.5,394 L1026.5,394 C1029.537,394 1032,396.462 1032,399.5" fill="#CCCCCC"/>
      <path d="M1043,530.364 C1043,532.924 1040.925,535 1038.364,535 L992.636,535 C990.075,535 988,532.924 988,530.364 L988,514.635 C988,512.075 990.075,510 992.636,510 L1038.364,510 C1040.925,510 1043,512.075 1043,514.635 z" fill="#3DA2D2"/>
      <path d="M1032,526.5 C1032,529.538 1029.537,532 1026.5,532 L1005.5,532 C1002.463,532 1000,529.538 1000,526.5 C1000,523.462 1002.463,521 1005.5,521 L1026.5,521 C1029.537,521 1032,523.462 1032,526.5" fill="#6A6B6B"/>
      <path d="M1032,524.5 C1032,527.538 1029.537,530 1026.5,530 L1005.5,530 C1002.463,530 1000,527.538 1000,524.5 C1000,521.462 1002.463,519 1005.5,519 L1026.5,519 C1029.537,519 1032,521.462 1032,524.5" fill="#CCCCCC"/>
    </g>
    <path d="M993.601,370.811 L1038.038,370.835 L1038.075,301.709 L993.637,301.686 z" fill="url(#Gradient_15)"/>
    <g>
      <path d="M1039,303.012 C1039,303.557 1038.558,304 1038.013,304 L992.987,304 C992.442,304 992,303.557 992,303.012 L992,301.988 C992,301.442 992.442,301 992.987,301 L1038.013,301 C1038.558,301 1039,301.442 1039,301.988 z" fill="#CCCCCC"/>
      <path d="M1039,373.013 C1039,373.558 1038.558,374 1038.013,374 L992.987,374 C992.442,374 992,373.558 992,373.013 L992,371.988 C992,371.442 992.442,371 992.987,371 L1038.013,371 C1038.558,371 1039,371.442 1039,371.988 z" fill="#CCCCCC"/>
    </g>
    <path d="M993.986,493.457 L1038.424,493.48 L1038.46,424.355 L994.022,424.331 z" fill="url(#Gradient_16)"/>
    <g>
      <path d="M1039,425.012 C1039,425.557 1038.558,426 1038.013,426 L992.987,426 C992.442,426 992,425.557 992,425.012 L992,423.988 C992,423.442 992.442,423 992.987,423 L1038.013,423 C1038.558,423 1039,423.442 1039,423.988 z" fill="#CCCCCC"/>
      <path d="M1039,496.013 C1039,496.558 1038.558,497 1038.013,497 L992.987,497 C992.442,497 992,496.558 992,496.013 L992,494.988 C992,494.442 992.442,494 992.987,494 L1038.013,494 C1038.558,494 1039,494.442 1039,494.988 z" fill="#CCCCCC"/>
      <path d="M1038,184.747 L1038,183.474 C1038,183.089 1038.271,182.733 1038.076,182.441 C1038.549,180.354 1039.009,178.167 1039.009,175.913 C1039.009,165.463 1034,156.438 1026,152.203 L1026,151 L1006,151 L1006,152.262 C997,156.522 992.838,165.511 992.838,175.913 C992.838,178.141 993.011,180.303 993.472,182.37 C993.223,182.674 993,183.057 993,183.474 L993,184.681 C1009,185.976 1023,185.992 1038,184.747" fill="#F1E540"/>
      <path d="M993,193.194 L993,195.541 L993,244.233 C993,245.366 993.859,246.285 994.854,246.285 C994.854,246.285 1004.25,248.749 1015.05,248.749 C1025.851,248.749 1036.613,246.285 1036.613,246.285 C1037.607,246.285 1038,245.366 1038,244.233 L1038,195.549 L1038,193.26 C1023,194.507 1009,194.49 993,193.194" fill="#F1E540"/>
      <path d="M1026,148.829 C1026,148.628 1028.035,147.912 1028.035,147.654 C1028.035,147.394 1026,147.153 1026,146.953 L1026,139.766 C1026,138.853 1025.267,138 1024.354,138 L1007.499,138 C1006.586,138 1006,138.853 1006,139.766 L1006,146.971 C1004,147.167 1004.074,147.402 1004.074,147.654 C1004.074,147.905 1004,148.614 1006,148.811 L1006,151 L1026,151 z" fill="#F1F1F1"/>
      <path d="M1026,145.238 C1026,146.211 1025.211,147 1024.238,147 L1006.762,147 C1005.789,147 1005,146.211 1005,145.238 L1005,130.762 C1005,129.789 1005.789,129 1006.762,129 L1024.238,129 C1025.211,129 1026,129.789 1026,130.762 z" fill="#F1F1F1"/>
      <path d="M1009,146 L1007,146 L1007,130 L1009,130 z" fill="#CCCCCC"/>
      <path d="M1010,146 L1009,146 L1009,130 L1010,130 z" fill="#CCCCCC"/>
      <path d="M1012,146 L1011,146 L1011,130 L1012,130 z" fill="#CCCCCC"/>
      <path d="M1015,146 L1014,146 L1014,130 L1015,130 z" fill="#CCCCCC"/>
      <path d="M1018,146 L1017,146 L1017,130 L1018,130 z" fill="#CCCCCC"/>
      <path d="M1020,146 L1019,146 L1019,130 L1020,130 z" fill="#CCCCCC"/>
      <path d="M1022,146 L1022,146 L1022,130 z" fill="#CCCCCC"/>
      <path d="M1025,146 L1024,146 L1024,130 L1025,130 z" fill="#CCCCCC"/>
      <g clip-path="url(#Clip_20)" opacity="0.31">
        <path d="M1034.47,239.47 C1034.416,239.47 1034.363,239.462 1034.307,239.447 C1025.401,236.855 1015.631,236.823 1009.004,237.251 C1001.804,237.717 996.654,238.813 996.602,238.824 C996.287,238.891 995.977,238.691 995.909,238.376 C995.841,238.061 996.04,237.751 996.356,237.682 C996.408,237.671 1001.627,236.56 1008.907,236.088 C1015.635,235.651 1025.557,235.686 1034.633,238.326 C1034.944,238.416 1035.121,238.74 1035.031,239.049 C1034.956,239.304 1034.724,239.47 1034.47,239.47" fill="#B4B4B4"/>
      </g>
      <g clip-path="url(#Clip_21)" opacity="0.47">
        <path d="M996.162,230.027 C996.162,230.027 995.846,240.407 995.846,241.189 C995.846,241.97 995.846,242.975 1006.295,243.31 C1006.295,243.31 997.745,242.194 997.43,239.291 C997.112,236.389 996.162,230.027 996.162,230.027" fill="#FEFEFE"/>
      </g>
      <g clip-path="url(#Clip_22)" opacity="0.47">
        <path d="M1006.295,154.679 C1006.295,154.679 998.063,158.795 995.213,170.825 C995.213,170.825 1006.295,155.628 1009.776,155.312 L1013.259,154.996 C1013.259,154.996 1008.826,153.412 1006.295,154.679" fill="#FEFEFE"/>
      </g>
      <path d="M1038,184.747 C1023,185.992 1009,185.976 993,184.681 L993,186.739 L993,221.52 C1009,222.656 1023,222.672 1038,221.578 L1038,186.747 z" fill="#75C8D5"/>
      <path d="M661,280.365 C661,282.925 658.924,285 656.364,285 L610.636,285 C608.076,285 606,282.925 606,280.365 L606,264.636 C606,262.075 608.076,260 610.636,260 L656.364,260 C658.924,260 661,262.075 661,264.636 z" fill="#3DA2D2"/>
      <path d="M650,276.5 C650,279.538 647.538,282 644.5,282 L623.5,282 C620.462,282 618,279.538 618,276.5 C618,273.462 620.462,271 623.5,271 L644.5,271 C647.538,271 650,273.462 650,276.5" fill="#6A6B6B"/>
      <path d="M650,273.5 C650,276.538 647.538,279 644.5,279 L623.5,279 C620.462,279 618,276.538 618,273.5 C618,270.462 620.462,268 623.5,268 L644.5,268 C647.538,268 650,270.462 650,273.5" fill="#CCCCCC"/>
      <path d="M661,406.364 C661,408.924 658.924,411 656.364,411 L610.636,411 C608.076,411 606,408.924 606,406.364 L606,390.635 C606,388.075 608.076,386 610.636,386 L656.364,386 C658.924,386 661,388.075 661,390.635 z" fill="#3DA2D2"/>
      <path d="M650,402.5 C650,405.538 647.538,408 644.5,408 L623.5,408 C620.462,408 618,405.538 618,402.5 C618,399.462 620.462,397 623.5,397 L644.5,397 C647.538,397 650,399.462 650,402.5" fill="#6A6B6B"/>
      <path d="M650,399.5 C650,402.538 647.538,405 644.5,405 L623.5,405 C620.462,405 618,402.538 618,399.5 C618,396.462 620.462,394 623.5,394 L644.5,394 C647.538,394 650,396.462 650,399.5" fill="#CCCCCC"/>
    </g>
    <path d="M611.933,370.811 L656.372,370.835 L656.408,301.709 L611.97,301.686 z" fill="url(#Gradient_17)"/>
    <g>
      <path d="M657,303.012 C657,303.557 656.558,304 656.012,304 L610.988,304 C610.442,304 610,303.557 610,303.012 L610,301.988 C610,301.442 610.442,301 610.988,301 L656.012,301 C656.558,301 657,301.442 657,301.988 z" fill="#CCCCCC"/>
      <path d="M657,373.013 C657,373.558 656.558,374 656.012,374 L610.988,374 C610.442,374 610,373.558 610,373.013 L610,371.988 C610,371.442 610.442,371 610.988,371 L656.012,371 C656.558,371 657,371.442 657,371.988 z" fill="#CCCCCC"/>
      <path d="M661,530.364 C661,532.924 658.924,535 656.364,535 L610.636,535 C608.076,535 606,532.924 606,530.364 L606,514.635 C606,512.075 608.076,510 610.636,510 L656.364,510 C658.924,510 661,512.075 661,514.635 z" fill="#3DA2D2"/>
      <path d="M650,526.5 C650,529.538 647.538,532 644.5,532 L623.5,532 C620.462,532 618,529.538 618,526.5 C618,523.462 620.462,521 623.5,521 L644.5,521 C647.538,521 650,523.462 650,526.5" fill="#6A6B6B"/>
      <path d="M650,524.5 C650,527.538 647.538,530 644.5,530 L623.5,530 C620.462,530 618,527.538 618,524.5 C618,521.462 620.462,519 623.5,519 L644.5,519 C647.538,519 650,521.462 650,524.5" fill="#CCCCCC"/>
    </g>
    <path d="M611.154,493.457 L655.591,493.48 L655.628,424.355 L611.19,424.331 z" fill="url(#Gradient_18)"/>
    <g>
      <path d="M657,425.012 C657,425.557 656.558,426 656.012,426 L610.988,426 C610.442,426 610,425.557 610,425.012 L610,423.988 C610,423.442 610.442,423 610.988,423 L656.012,423 C656.558,423 657,423.442 657,423.988 z" fill="#CCCCCC"/>
      <path d="M657,496.013 C657,496.558 656.558,497 656.012,497 L610.988,497 C610.442,497 610,496.558 610,496.013 L610,494.988 C610,494.442 610.442,494 610.988,494 L656.012,494 C656.558,494 657,494.442 657,494.988 z" fill="#CCCCCC"/>
      <path d="M645,107.835 C646,107.599 647.397,106.755 647.397,106.45 C647.397,106.144 646,105.861 645,105.625 L645,97.156 C645,96.081 644.613,96 643.538,96 L623.678,96 C622.602,96 621,96.081 621,97.156 L621,105.646 C619,105.877 618.731,106.153 618.731,106.45 C618.731,106.746 619,107.583 621,107.814 L621,111 L645,111 z" fill="#F1F1F1"/>
      <path d="M605.946,139.749 C605.946,142.374 606.082,144.922 606.625,147.357 C606.332,147.715 606,148.166 606,148.658 L606,152.505 L606,195.913 L606,246.221 C606,247.392 607.31,248.342 608.481,248.342 C608.481,248.342 619.7,250.887 632.426,250.887 C645.152,250.887 658.098,248.342 658.098,248.342 C659.27,248.342 660,247.392 660,246.221 L660,195.92 L660,152.514 L660,148.658 C660,148.205 660.129,147.786 659.899,147.441 C660.455,144.982 660.662,142.405 660.662,139.749 C660.662,127.436 654,116.802 645,111.811 L645,111 L621,111 L621,111.881 C612,116.901 605.946,127.493 605.946,139.749" fill="#E8F4F7"/>
      <path d="M645,102.923 C645,104.07 644.07,105 642.923,105 L622.077,105 C620.93,105 620,104.07 620,102.923 L620,87.076 C620,85.929 620.93,85 622.077,85 L642.923,85 C644.07,85 645,85.929 645,87.076 z" fill="#F1F1F1"/>
      <path d="M625,104 L623,104 L623,86 L625,86 z" fill="#E5E5E5"/>
      <path d="M627,104 L626,104 L626,86 L627,86 z" fill="#E5E5E5"/>
      <path d="M629,104 L628,104 L628,86 L629,86 z" fill="#E5E5E5"/>
      <path d="M632,104 L631,104 L631,86 L632,86 z" fill="#E5E5E5"/>
      <path d="M636,104 L635,104 L635,86 L636,86 z" fill="#E5E5E5"/>
      <path d="M638,104 L637,104 L637,86 L638,86 z" fill="#E5E5E5"/>
      <path d="M641,104 L640,104 L640,86 L641,86 z" fill="#E5E5E5"/>
      <path d="M644,104 L643,104 L643,86 L644,86 z" fill="#E5E5E5"/>
      <g clip-path="url(#Clip_23)" opacity="0.31">
        <path d="M655.457,245.233 C655.394,245.233 655.33,245.224 655.265,245.205 C644.77,242.152 633.259,242.113 625.45,242.618 C616.968,243.167 610.898,244.459 610.837,244.472 C610.467,244.551 610.101,244.316 610.02,243.943 C609.941,243.573 610.176,243.207 610.548,243.127 C610.609,243.113 616.759,241.804 625.336,241.248 C633.263,240.733 644.956,240.774 655.649,243.885 C656.015,243.991 656.224,244.373 656.118,244.737 C656.03,245.037 655.756,245.233 655.457,245.233" fill="#B4B4B4"/>
      </g>
      <g clip-path="url(#Clip_24)" opacity="0.47">
        <path d="M610.319,203.51 C610.319,203.51 609.946,238.203 609.946,240.815 C609.946,243.426 609.946,246.783 622.257,247.902 C622.257,247.902 612.184,244.172 611.812,234.472 C611.438,224.774 610.319,203.51 610.319,203.51" fill="#FEFEFE"/>
      </g>
      <g clip-path="url(#Clip_25)" opacity="0.47">
        <path d="M622.258,114.728 C622.258,114.728 612.558,119.578 609.2,133.753 C609.2,133.753 622.258,115.847 626.361,115.474 L630.465,115.102 C630.465,115.102 625.241,113.236 622.258,114.728" fill="#FEFEFE"/>
      </g>
      <path d="M661,193.496 L661,150.09 C642,151.634 625,151.632 606,150.08 L606,193.488 C625,194.85 642,194.852 661,193.496" fill="#75C8D5"/>
      <path d="M627,156.963 C627,156.963 640,189.413 627,189.413 C615,189.413 627,156.963 627,156.963" fill="#CFE9EE"/>
      <path d="M642,165.308 C642,165.308 650,183.561 642,183.561 C636,183.561 642,165.308 642,165.308" fill="#CFE9EE"/>
    </g>
    <path d="M512.635,579 C510.076,579 508,581.075 508,583.636 L508,583.636 L508,769.364 C508,771.925 510.076,774 512.635,774 L512.635,774 L789.364,774 C791.924,774 794,771.925 794,769.364 L794,769.364 L794,583.636 C794,581.075 791.924,579 789.364,579 L789.364,579 z" fill="url(#Gradient_19)"/>
    <path d="M922.507,565 C915.6,565 910,569.15 910,574.271 L910,574.271 L910,730.729 C910,735.849 915.6,740 922.507,740 L922.507,740 L1069.493,740 C1076.4,740 1082,735.849 1082,730.729 L1082,730.729 L1082,574.271 C1082,569.15 1076.4,565 1069.493,565 L1069.493,565 z" fill="url(#Gradient_20)"/>
    <g>
      <g opacity="0.47">
        <path d="M1000,712 L924,712 L924,646 L1000,646 z" fill="url(#Gradient_21)"/>
      </g>
      <path d="M981.368,604.766 C981.368,590.428 969.747,578.806 955.409,578.806 C941.071,578.806 929.449,590.428 929.449,604.766 C929.449,619.103 941.071,630.725 955.409,630.725 C969.747,630.725 981.368,619.103 981.368,604.766" fill="#9B9A9B"/>
      <path d="M977.441,596.126 C975.818,594.797 973.425,595.036 972.097,596.661 C966.164,603.912 956.206,604.67 949.347,604.163 C948.266,600.485 944.872,597.8 940.846,597.8 C935.95,597.8 931.981,601.769 931.981,606.664 C931.981,611.559 935.95,615.529 940.846,615.529 C943.865,615.529 946.528,614.016 948.128,611.71 C949.535,611.833 951.062,611.914 952.677,611.914 C960.816,611.914 971.066,609.918 977.976,601.472 C979.305,599.847 979.066,597.454 977.441,596.126" fill="#2D2D2E"/>
      <path d="M1065.273,604.766 C1065.273,590.429 1053.651,578.806 1039.313,578.806 C1024.976,578.806 1013.354,590.429 1013.354,604.766 C1013.354,619.103 1024.976,630.725 1039.313,630.725 C1053.651,630.725 1065.273,619.103 1065.273,604.766" fill="#9B9A9B"/>
      <path d="M1058,607 L1019,607 L1019,599 L1058,599 z" fill="#3E3F3F"/>
      <path d="M1083,810.477 C1083,812.422 1081.15,814 1078.868,814 L1011.132,814 C1008.85,814 1007,812.422 1007,810.477 L1007,754.522 C1007,752.578 1008.85,751 1011.132,751 L1078.868,751 C1081.15,751 1083,752.578 1083,754.522 z" fill="#3E3F3F"/>
      <g clip-path="url(#Clip_26)" opacity="0.47">
        <path d="M1082,809.479 C1082,811.424 1080.15,813 1077.869,813 L1010.131,813 C1007.85,813 1006,811.424 1006,809.479 L1006,753.521 C1006,751.576 1007.85,750 1010.131,750 L1077.869,750 C1080.15,750 1082,751.576 1082,753.521 z" fill="url(#Gradient_22)"/>
        <path d="M1082,809.478 C1082,811.423 1080.15,812.999 1077.869,812.999 L1010.131,812.999 C1007.85,812.999 1006,811.423 1006,809.478 L1006,753.521 C1006,751.576 1007.85,749.999 1010.131,749.999 L1077.869,749.999 C1080.15,749.999 1082,751.576 1082,753.521 L1082,809.478 z" fill-opacity="0" stroke="#B4B4B4" stroke-width="4"/>
      </g>
    </g>
    <path d="M530.741,853 C525.913,853 522,857.151 522,862.271 L522,862.271 L522,968.729 C522,973.849 525.913,978 530.741,978 L530.741,978 L1054.259,978 C1059.086,978 1063,973.849 1063,968.729 L1063,968.729 L1063,862.271 C1063,857.151 1059.086,853 1054.259,853 L1054.259,853 z" fill="url(#Gradient_23)"/>
    <g>
      <g clip-path="url(#Clip_27)" opacity="0.47">
        <path d="M1063,968.729 C1063,973.849 1059.086,978 1054.259,978 L530.741,978 C525.914,978 522,973.849 522,968.729 L522,862.271 C522,857.151 525.914,853 530.741,853 L1054.259,853 C1059.086,853 1063,857.151 1063,862.271 z" fill="url(#Gradient_24)"/>
        <path d="M1063,968.728 C1063,973.848 1059.086,977.999 1054.259,977.999 L530.741,977.999 C525.914,977.999 522,973.848 522,968.728 L522,862.271 C522,857.151 525.914,852.999 530.741,852.999 L1054.259,852.999 C1059.086,852.999 1063,857.151 1063,862.271 L1063,968.728 z" fill-opacity="0" stroke="#B4B4B4" stroke-width="4"/>
      </g>
      <g clip-path="url(#Clip_28)" opacity="0.28">
        <path d="M533,899 C533,899 535,873 535,867 C535,861 551,861 561,861 L599,861 C599,861 549,867 533,899 z" fill="url(#Gradient_25)"/>
      </g>
      <g clip-path="url(#Clip_29)" opacity="0.27">
        <path d="M1045,960 C1045,962.762 1042.762,965 1040,965 L550,965 C547.239,965 545,962.762 545,960 L545,944 C545,941.238 547.239,939 550,939 L1040,939 C1042.762,939 1045,941.238 1045,944 z" fill="url(#Gradient_26)"/>
      </g>
      <path d="M729.701,662.027 C724.162,657.64 714.172,657.881 710.028,664.298 C708.71,666.339 707.262,668.25 705.695,670.104 C704.953,670.982 704.16,671.814 703.364,672.642 C704.513,671.423 701.732,674.154 701.64,674.236 C699.494,676.15 697.196,677.885 694.863,679.561 C693.668,680.42 692.43,681.215 691.194,682.009 C691.312,681.933 688.614,683.502 688.655,683.516 C686.256,684.791 683.772,685.892 681.253,686.905 C679.928,687.438 678.571,687.884 677.214,688.327 C676.906,688.427 676.661,688.509 676.459,688.578 C676.224,688.619 675.857,688.692 675.304,688.812 C673.991,689.097 672.659,689.271 671.327,689.44 C671.126,689.465 669.082,689.548 668.76,689.607 C667.856,689.547 666.956,689.451 666.058,689.333 C665.916,689.314 665.792,689.298 665.677,689.285 C665.497,689.198 665.227,689.084 664.83,688.932 C664.584,688.839 664.185,688.617 663.808,688.393 C663.76,688.35 663.713,688.306 663.665,688.261 L663.658,688.25 C663.536,687.92 663.409,687.541 663.318,687.275 C663.085,685.863 662.994,684.423 662.925,683.003 C662.919,682.877 662.913,682.767 662.908,682.667 C662.909,682.619 662.91,682.576 662.911,682.524 C662.933,681.467 662.987,680.411 663.036,679.355 C663.497,669.408 664.326,659.053 659.981,649.756 C655.267,639.67 643.413,638.554 636.028,646.298 C632.1,650.418 629.574,656.039 626.882,660.997 C625.253,663.998 623.662,667.018 622.043,670.023 C621.179,671.626 620.301,673.22 619.416,674.811 C618.879,675.775 618.332,676.732 617.783,677.688 C617.717,677.804 617.671,677.884 617.618,677.978 C617.566,678.062 617.525,678.13 617.463,678.232 C615.662,681.213 613.73,684.11 611.645,686.898 C611.526,687.057 611.397,687.208 611.276,687.365 C611.113,686.295 610.971,685.22 610.848,684.144 C610.661,682.507 610.539,680.864 610.459,679.218 C621.004,664.61 626.957,647.012 624.889,629.218 C623.766,619.559 614.212,615.568 605.756,618.019 C589.675,622.679 585.197,645.672 583.424,659.68 C583.043,662.691 582.732,665.798 582.528,668.954 C575.225,676.863 566.403,682.603 555.756,686.019 C548.484,688.352 545.32,697.56 548.02,704.244 C551.034,711.705 558.986,714.31 566.245,711.98 C573.242,709.735 580.041,706.403 586.396,702.227 C587.403,704.886 588.605,707.46 590.075,709.894 C595.442,718.783 606.336,721.128 615.703,718.621 C623.726,716.473 630.083,709.14 634.776,702.692 C635.784,701.306 636.746,699.886 637.689,698.452 C641.036,706.397 647.52,712.703 656.238,715.533 C670.709,720.231 686.614,716.025 699.699,709.188 C712.116,702.701 724.284,693.606 731.973,681.701 C736.109,675.296 736.11,667.103 729.701,662.027" fill="#E6302D"/>
      <path d="M750.889,621.219 C749.82,612.943 742.851,609.112 735.22,609.112 C727.581,609.112 722.229,617.948 723.112,624.782 C724.181,633.058 731.149,636.889 738.781,636.889 C746.419,636.889 751.772,628.053 750.889,621.219" fill="#E6302D"/>
    </g>
  </g>
</svg>
